<svg width="24.000000" height="24.000000" viewBox="0 0 24 24" fill="none" xmlns="http://www.w3.org/2000/svg" xmlns:xlink="http://www.w3.org/1999/xlink">
	<desc>
			Created with Pixso.
	</desc>
	<g clip-path="url(#clip27_164)">
		<path d="M14.828 7.75702L9.172 13.414C9.07648 13.5062 9.00031 13.6166 8.94788 13.7386C8.89545 13.8606 8.86786 13.9918 8.86676 14.1246C8.8656 14.2574 8.89087 14.389 8.94116 14.512C8.99146 14.6349 9.06567 14.7465 9.15961 14.8404C9.25348 14.9343 9.36511 15.0085 9.48804 15.0588C9.6109 15.1091 9.74261 15.1344 9.87537 15.1332C10.0082 15.1321 10.1394 15.1045 10.2614 15.0521C10.3834 14.9997 10.4937 14.9235 10.586 14.828L16.243 9.172C16.8057 8.60938 17.1218 7.84625 17.1218 7.05054C17.1218 6.25482 16.8057 5.49164 16.243 4.92902C15.6803 4.36633 14.9172 4.05023 14.1215 4.05023C13.3257 4.05023 12.5626 4.36633 12 4.92902L6.34296 10.586C5.86908 11.0482 5.49164 11.5998 5.23254 12.2089C4.97345 12.8181 4.83795 13.4725 4.8338 14.1345C4.82965 14.7964 4.95697 15.4526 5.20837 16.0649C5.45978 16.6772 5.83032 17.2336 6.2984 17.7016C6.76648 18.1696 7.32288 18.54 7.93524 18.7914C8.54761 19.0427 9.2038 19.17 9.86572 19.1657C10.5276 19.1615 11.1821 19.0258 11.7913 18.7667C12.4003 18.5075 12.9519 18.13 13.414 17.656L19.071 12L20.485 13.414L14.828 19.071C14.1779 19.7211 13.4062 20.2367 12.5569 20.5885C11.7076 20.9403 10.7973 21.1213 9.87799 21.1213C8.95868 21.1213 8.0484 20.9403 7.19904 20.5885C6.34973 20.2367 5.578 19.7211 4.92798 19.071C4.27795 18.421 3.76227 17.6492 3.41052 16.7999C3.05872 15.9506 2.87762 15.0403 2.87762 14.121C2.87762 13.2017 3.05872 12.2914 3.41052 11.4421C3.76227 10.5928 4.27795 9.82104 4.92798 9.17102L10.586 3.51501C11.529 2.60425 12.792 2.10022 14.103 2.11163C15.414 2.12305 16.668 2.64886 17.5951 3.57593C18.5221 4.50293 19.048 5.75702 19.0593 7.06799C19.0707 8.37897 18.5668 9.64203 17.656 10.585L12 16.244C11.7213 16.5226 11.3905 16.7436 11.0264 16.8943C10.6624 17.0451 10.2722 17.1227 9.87811 17.1226C9.48407 17.1226 9.09393 17.0449 8.72986 16.894C8.36584 16.7432 8.0351 16.5222 7.75647 16.2435C7.47791 15.9648 7.2569 15.634 7.10614 15.27C6.95538 14.9059 6.87781 14.5157 6.87787 14.1216C6.87793 13.7276 6.95557 13.3374 7.10645 12.9734C7.25726 12.6094 7.47833 12.2786 7.75696 12L13.414 6.34302L14.828 7.75702Z" fill-rule="evenodd" fill="#FFFFFF"/>
	</g>
	<defs>
		<clipPath id="clip27_164">
			<rect width="24.000000" height="24.000000" fill="white"/>
		</clipPath>
	</defs>
</svg>
