<svg width="24.000000" height="24.000000" viewBox="0 0 24 24" fill="none" xmlns="http://www.w3.org/2000/svg" xmlns:xlink="http://www.w3.org/1999/xlink">
	<desc>
			Created with Pixso.
	</desc>
	<g clip-path="url(#clip20_202)">
		<path d="M12 3C11.2043 3 10.4413 3.31604 9.87866 3.87866C9.31604 4.44128 9 5.20435 9 6L9 10C9 10.7957 9.31604 11.5587 9.87866 12.1213C10.4413 12.684 11.2043 13 12 13C12.7957 13 13.5587 12.684 14.1213 12.1213C14.6839 11.5587 15 10.7957 15 10L15 6C15 5.20435 14.6839 4.44128 14.1213 3.87866C13.5587 3.31604 12.7957 3 12 3ZM12 1C12.6566 1 13.3068 1.12933 13.9134 1.38062C14.52 1.6319 15.0712 2.00018 15.5355 2.46448C15.9998 2.92877 16.3681 3.47998 16.6194 4.08661C16.8707 4.69324 17 5.34338 17 6L17 10C17 11.3261 16.4732 12.5978 15.5355 13.5355C14.5978 14.4732 13.326 15 12 15C10.6739 15 9.40216 14.4732 8.46448 13.5355C7.52679 12.5978 7 11.3261 7 10L7 6C7 4.67389 7.52679 3.40216 8.46448 2.46448C9.40216 1.52679 10.6739 1 12 1L12 1ZM3.05499 11L5.07001 11C5.31226 12.6648 6.14587 14.1867 7.41821 15.2873C8.69061 16.3879 10.3167 16.9935 11.999 16.9935C13.6813 16.9935 15.3074 16.3879 16.5798 15.2873C17.8521 14.1867 18.6857 12.6648 18.928 11L20.944 11C20.7166 13.0287 19.8066 14.9199 18.3632 16.3635C16.9198 17.8071 15.0287 18.7173 13 18.945L13 23L11 23L11 18.945C8.97113 18.7176 7.07977 17.8074 5.63617 16.3638C4.19257 14.9202 3.28241 13.0289 3.05499 11L3.05499 11Z" fill-rule="evenodd" fill="#FFFFFF"/>
	</g>
	<defs>
		<clipPath id="clip20_202">
			<rect width="24.000000" height="24.000000" fill="white"/>
		</clipPath>
	</defs>
</svg>
