<svg width="24.000000" height="24.000000" viewBox="0 0 24 24" fill="none" xmlns="http://www.w3.org/2000/svg" xmlns:xlink="http://www.w3.org/1999/xlink">
	<desc>
			Created with Pixso.
	</desc>
	<g clip-path="url(#clip13_27)">
		<path d="M12 3C11.175 3 10.5 3.67499 10.5 4.5C10.5 5.32501 11.175 6 12 6C12.825 6 13.5 5.32501 13.5 4.5C13.5 3.67499 12.825 3 12 3ZM12 18C11.175 18 10.5 18.675 10.5 19.5C10.5 20.325 11.175 21 12 21C12.825 21 13.5 20.325 13.5 19.5C13.5 18.675 12.825 18 12 18ZM12 10.5C11.175 10.5 10.5 11.175 10.5 12C10.5 12.825 11.175 13.5 12 13.5C12.825 13.5 13.5 12.825 13.5 12C13.5 11.175 12.825 10.5 12 10.5Z" fill-rule="evenodd" fill="#FFFFFF"/>
	</g>
	<defs>
		<clipPath id="clip13_27">
			<rect width="24.000000" height="24.000000" fill="white"/>
		</clipPath>
	</defs>
</svg>
