<svg width="24.000000" height="24.000000" viewBox="0 0 24 24" fill="none" xmlns="http://www.w3.org/2000/svg" xmlns:xlink="http://www.w3.org/1999/xlink">
	<desc>
			Created with Pixso.
	</desc>
	<g clip-path="url(#clip40_348)">
		<path d="M18 10C18 8.40869 17.3679 6.88257 16.2426 5.75739C15.1174 4.63214 13.5913 4 12 4C10.4087 4 8.88257 4.63214 7.75739 5.75739C6.63214 6.88257 6 8.40869 6 10L6 18L18 18L18 10ZM20 18.667L20.4 19.2C20.4557 19.2743 20.4896 19.3626 20.498 19.4551C20.5063 19.5476 20.4888 19.6406 20.4472 19.7236C20.4057 19.8066 20.3419 19.8765 20.2629 19.9254C20.1839 19.9741 20.0928 20 20 20L4 20C3.90717 20 3.8161 19.9741 3.73712 19.9254C3.65814 19.8765 3.5943 19.8066 3.5528 19.7236C3.51123 19.6406 3.49365 19.5476 3.50201 19.4551C3.51038 19.3626 3.54431 19.2743 3.59998 19.2L4 18.667L4 10C4 7.8783 4.84283 5.84344 6.34314 4.34314C7.84344 2.84283 9.8783 2 12 2C14.1217 2 16.1566 2.84283 17.6569 4.34314C19.1572 5.84344 20 7.8783 20 10L20 18.667ZM9.5 21L14.5 21C14.5 21.663 14.2366 22.299 13.7678 22.7678C13.299 23.2366 12.663 23.5 12 23.5C11.337 23.5 10.701 23.2366 10.2322 22.7678C9.76337 22.299 9.5 21.663 9.5 21L9.5 21Z" fill-rule="evenodd" fill="#FFFFFF"/>
	</g>
	<defs>
		<clipPath id="clip40_348">
			<rect width="24.000000" height="24.000000" fill="white"/>
		</clipPath>
	</defs>
</svg>
