<svg width="24.000000" height="24.000000" viewBox="0 0 24 24" fill="none" xmlns="http://www.w3.org/2000/svg" xmlns:xlink="http://www.w3.org/1999/xlink">
	<desc>
			Created with Pixso.
	</desc>
	<g clip-path="url(#clip4_39)">
		<path d="M11 2C15.968 2 20 6.03198 20 11C20 15.968 15.968 20 11 20C6.03198 20 2 15.968 2 11C2 6.03198 6.03198 2 11 2ZM11 18C14.867 18 18 14.867 18 11C18 7.13202 14.867 4 11 4C7.13202 4 4 7.13202 4 11C4 14.867 7.13202 18 11 18ZM19.485 18.071L22.314 20.899L20.899 22.314L18.071 19.485L19.485 18.071L19.485 18.071Z" fill-rule="evenodd" fill="#FFFFFF"/>
	</g>
	<defs>
		<clipPath id="clip4_39">
			<rect width="24.000000" height="24.000000" fill="white"/>
		</clipPath>
	</defs>
</svg>
