<svg width="24.000000" height="24.000000" viewBox="0 0 24 24" fill="none" xmlns="http://www.w3.org/2000/svg" xmlns:xlink="http://www.w3.org/1999/xlink">
	<desc>
			Created with Pixso.
	</desc>
	<g clip-path="url(#clip64_3701)">
		<path d="M3.74097 1.4082L22.203 11.562C22.2814 11.6052 22.3468 11.6687 22.3923 11.7456C22.4379 11.8228 22.4618 11.9106 22.4618 12C22.4618 12.0896 22.4379 12.1775 22.3923 12.2544C22.3468 12.3315 22.2814 12.395 22.203 12.438L3.74097 22.592C3.66492 22.634 3.5791 22.6553 3.49231 22.6541C3.4054 22.6526 3.32031 22.6287 3.24561 22.5845C3.17078 22.5403 3.10876 22.4773 3.06567 22.4019C3.02271 22.3264 3 22.241 3 22.1541L3 1.84619C3 1.75928 3.02271 1.67383 3.06567 1.59839C3.10876 1.52295 3.17078 1.45996 3.24561 1.41577C3.32031 1.37158 3.4054 1.34766 3.49231 1.34619C3.5791 1.34497 3.66492 1.36621 3.74097 1.4082L3.74097 1.4082ZM5 13L5 19.6172L18.85 12L5 4.38306L5 11L10 11L10 13L5 13Z" fill-rule="evenodd" fill="#FFFFFF"/>
	</g>
	<defs>
		<clipPath id="clip64_3701">
			<rect width="24.000000" height="24.000000" fill="white"/>
		</clipPath>
	</defs>
</svg>
