<svg width="24.000000" height="24.000000" viewBox="0 0 24 24" fill="none" xmlns="http://www.w3.org/2000/svg" xmlns:xlink="http://www.w3.org/1999/xlink">
	<desc>
			Created with Pixso.
	</desc>
	<g clip-path="url(#clip40_420)">
		<path d="M2.21301 14.06C1.92542 12.7017 1.92542 11.2983 2.21301 9.94C3.323 10.07 4.29303 9.703 4.60901 8.93903C4.92603 8.17401 4.50098 7.229 3.62299 6.53601C4.38007 5.37231 5.37231 4.38007 6.53601 3.62299C7.22803 4.5 8.17401 4.92603 8.93903 4.60901C9.70398 4.29199 10.071 3.323 9.94 2.21301C11.2983 1.92542 12.7017 1.92542 14.06 2.21301C13.93 3.323 14.297 4.29303 15.061 4.60901C15.826 4.92603 16.771 4.50098 17.464 3.62299C18.6277 4.38007 19.62 5.37231 20.377 6.53601C19.5 7.22803 19.074 8.17401 19.391 8.93903C19.708 9.70398 20.677 10.071 21.787 9.94C22.0746 11.2983 22.0746 12.7017 21.787 14.06C20.677 13.93 19.707 14.297 19.391 15.061C19.074 15.826 19.499 16.771 20.377 17.464C19.62 18.6277 18.6277 19.62 17.464 20.377C16.772 19.5 15.826 19.074 15.061 19.391C14.296 19.708 13.929 20.677 14.06 21.787C12.7017 22.0746 11.2983 22.0746 9.94 21.787C10.07 20.677 9.703 19.707 8.93903 19.391C8.17401 19.074 7.229 19.499 6.53601 20.377C5.37231 19.62 4.38007 18.6277 3.62299 17.464C4.5 16.772 4.92603 15.826 4.60901 15.061C4.29199 14.296 3.323 13.929 2.21301 14.06L2.21301 14.06ZM4 12.21C5.10004 12.515 6.00702 13.212 6.45703 14.296C6.90601 15.381 6.75702 16.516 6.19501 17.508C6.29102 17.61 6.39001 17.709 6.492 17.805C7.48499 17.243 8.61902 17.095 9.70398 17.543C10.788 17.993 11.485 18.9 11.79 20C11.93 20.004 12.07 20.004 12.21 20C12.515 18.9 13.212 17.993 14.296 17.543C15.381 17.094 16.516 17.243 17.508 17.805C17.61 17.709 17.709 17.61 17.805 17.508C17.243 16.515 17.095 15.381 17.543 14.296C17.993 13.212 18.9 12.515 20 12.21C20.004 12.07 20.004 11.93 20 11.79C18.9 11.485 17.993 10.788 17.543 9.70398C17.094 8.61902 17.243 7.48401 17.805 6.492C17.7086 6.39038 17.6096 6.29138 17.508 6.19501C16.515 6.75702 15.381 6.90503 14.296 6.45703C13.212 6.00702 12.515 5.10004 12.21 4C12.07 3.99628 11.93 3.99628 11.79 4C11.485 5.10004 10.788 6.00702 9.70398 6.45703C8.61902 6.90601 7.48401 6.75702 6.492 6.19501C6.39001 6.29102 6.29102 6.39001 6.19501 6.492C6.75702 7.48499 6.90503 8.61902 6.45703 9.70398C6.00702 10.788 5.10004 11.485 4 11.79C3.99603 11.93 3.99603 12.07 4 12.21L4 12.21ZM12 15C11.2043 15 10.4413 14.684 9.87866 14.1213C9.3161 13.5587 9 12.7957 9 12C9 11.2043 9.3161 10.4413 9.87866 9.87866C10.4413 9.3161 11.2043 9 12 9C12.7957 9 13.5587 9.3161 14.1213 9.87866C14.684 10.4413 15 11.2043 15 12C15 12.7957 14.684 13.5587 14.1213 14.1213C13.5587 14.684 12.7957 15 12 15ZM12 13C12.2652 13 12.5196 12.8947 12.7071 12.7071C12.8947 12.5196 13 12.2652 13 12C13 11.7348 12.8947 11.4804 12.7071 11.2929C12.5196 11.1053 12.2652 11 12 11C11.7348 11 11.4804 11.1053 11.2929 11.2929C11.1053 11.4804 11 11.7348 11 12C11 12.2652 11.1053 12.5196 11.2929 12.7071C11.4804 12.8947 11.7348 13 12 13L12 13Z" fill-rule="evenodd" fill="#FFFFFF"/>
	</g>
	<defs>
		<clipPath id="clip40_420">
			<rect width="24.000000" height="24.000000" fill="white"/>
		</clipPath>
	</defs>
</svg>
