<svg width="24.000000" height="24.000000" viewBox="0 0 24 24" fill="none" xmlns="http://www.w3.org/2000/svg" xmlns:xlink="http://www.w3.org/1999/xlink">
	<desc>
			Created with Pixso.
	</desc>
	<g clip-path="url(#clip27_152)">
		<path d="M12 22C6.47699 22 2 17.523 2 12C2 6.47699 6.47699 2 12 2C17.523 2 22 6.47699 22 12C22 17.523 17.523 22 12 22ZM12 20C14.1217 20 16.1566 19.1572 17.6569 17.6569C19.1572 16.1566 20 14.1217 20 12C20 9.8783 19.1572 7.84344 17.6569 6.34314C16.1566 4.84283 14.1217 4 12 4C9.8783 4 7.84344 4.84283 6.34314 6.34314C4.84283 7.84344 4 9.8783 4 12C4 14.1217 4.84283 16.1566 6.34314 17.6569C7.84344 19.1572 9.8783 20 12 20L12 20ZM7 13L9 13C9 13.7957 9.31604 14.5587 9.87866 15.1213C10.4413 15.684 11.2043 16 12 16C12.7957 16 13.5587 15.684 14.1213 15.1213C14.684 14.5587 15 13.7957 15 13L17 13C17 14.3261 16.4732 15.5978 15.5355 16.5355C14.5978 17.4732 13.3261 18 12 18C10.6739 18 9.40216 17.4732 8.46448 16.5355C7.52679 15.5978 7 14.3261 7 13L7 13ZM8 11C7.60217 11 7.22064 10.842 6.93933 10.5607C6.65802 10.2794 6.5 9.89783 6.5 9.5C6.5 9.10217 6.65802 8.72064 6.93933 8.43933C7.22064 8.15802 7.60217 8 8 8C8.39783 8 8.77936 8.15802 9.06067 8.43933C9.34198 8.72064 9.5 9.10217 9.5 9.5C9.5 9.89783 9.34198 10.2794 9.06067 10.5607C8.77936 10.842 8.39783 11 8 11ZM16 11C15.6022 11 15.2206 10.842 14.9393 10.5607C14.658 10.2794 14.5 9.89783 14.5 9.5C14.5 9.10217 14.658 8.72064 14.9393 8.43933C15.2206 8.15802 15.6022 8 16 8C16.3978 8 16.7794 8.15802 17.0607 8.43933C17.342 8.72064 17.5 9.10217 17.5 9.5C17.5 9.89783 17.342 10.2794 17.0607 10.5607C16.7794 10.842 16.3978 11 16 11Z" fill-rule="evenodd" fill="#FFFFFF"/>
	</g>
	<defs>
		<clipPath id="clip27_152">
			<rect width="24.000000" height="24.000000" fill="white"/>
		</clipPath>
	</defs>
</svg>
