<svg width="24.000000" height="24.000000" viewBox="0 0 24 24" fill="none" xmlns="http://www.w3.org/2000/svg" xmlns:xlink="http://www.w3.org/1999/xlink">
	<desc>
			Created with Pixso.
	</desc>
	<g clip-path="url(#clip64_3700)">
		<path d="M12 22C6.47705 22 2 17.5229 2 12C2 6.47705 6.47705 2 12 2C17.5229 2 22 6.47705 22 12C22 17.5229 17.5229 22 12 22ZM12 20C14.1217 20 16.1566 19.1572 17.6569 17.6567C19.1571 16.1565 20 14.1218 20 12C20 9.87817 19.1571 7.84351 17.6569 6.34326C16.1566 4.84277 14.1217 4 12 4C9.8783 4 7.84338 4.84277 6.34314 6.34326C4.8429 7.84351 4 9.87817 4 12C4 14.1218 4.8429 16.1565 6.34314 17.6567C7.84338 19.1572 9.8783 20 12 20L12 20ZM9 9L11 9L11 15L9 15L9 9ZM13 9L15 9L15 15L13 15L13 9Z" fill-rule="evenodd" fill="#C65D7B"/>
	</g>
	<defs>
		<clipPath id="clip64_3700">
			<rect width="24.000000" height="24.000000" fill="white"/>
		</clipPath>
	</defs>
</svg>
