<svg width="24.000000" height="24.000000" viewBox="0 0 24 24" fill="none" xmlns="http://www.w3.org/2000/svg" xmlns:xlink="http://www.w3.org/1999/xlink">
	<desc>
			Created with Pixso.
	</desc>
	<g clip-path="url(#clip40_359)">
		<path d="M12 2C17.52 2 22 6.47998 22 12C22 17.52 17.52 22 12 22C6.47998 22 2 17.52 2 12C2 6.47998 6.47998 2 12 2ZM12 20C16.42 20 20 16.42 20 12C20 7.58002 16.42 4 12 4C7.58002 4 4 7.58002 4 12C4 16.42 7.58002 20 12 20ZM15.536 7.04999L16.95 8.46399L12 13.414L10.586 12L15.536 7.04999L15.536 7.04999Z" fill-rule="evenodd" fill="#FFFFFF"/>
	</g>
	<defs>
		<clipPath id="clip40_359">
			<rect width="24.000000" height="24.000000" fill="white"/>
		</clipPath>
	</defs>
</svg>
